<svg xmlns="http://www.w3.org/2000/svg" xmlns:xlink="http://www.w3.org/1999/xlink" width="1024" zoomAndPan="magnify" viewBox="0 0 768 767.999994" height="1024" preserveAspectRatio="xMidYMid meet" version="1.0"><path fill="#181718" d="M 123.367188 40.132812 L 671.699219 40.132812 L 671.699219 132.082031 L 222.042969 133.203125 L 222.042969 488.667969 L 226.53125 490.910156 L 246.714844 511.09375 L 252.320312 517.824219 L 334.179688 599.679688 L 340.90625 607.53125 L 343.148438 608.652344 L 343.148438 226.273438 L 671.699219 226.273438 L 671.699219 319.347656 L 437.339844 319.347656 L 438.460938 384.382812 L 438.460938 684.902344 L 435.097656 692.75 L 419.398438 709.570312 L 381.273438 747.695312 L 373.425781 756.667969 L 364.453125 765.636719 L 359.96875 763.394531 L 348.753906 753.304688 L 128.972656 533.523438 L 123.367188 529.035156 L 122.246094 526.792969 L 122.246094 42.375 Z M 123.367188 40.132812 " fill-opacity="1" fill-rule="nonzero"/></svg>