<svg xmlns="http://www.w3.org/2000/svg" xmlns:xlink="http://www.w3.org/1999/xlink" width="1024" zoomAndPan="magnify" viewBox="0 0 768 767.999994" height="1024" preserveAspectRatio="xMidYMid meet" version="1.0"><defs><g/><clipPath id="d0e8ab2f88"><path d="M 8.667969 27.066406 L 469 27.066406 L 469 741 L 8.667969 741 Z M 8.667969 27.066406 " clip-rule="nonzero"/></clipPath><clipPath id="4e66b9588f"><path d="M 138.324219 384.003906 C 138.324219 195.921875 285.996094 43.277344 468.859375 41.351562 C 436.964844 32.167969 403.25 27.226562 368.367188 27.226562 C 169.714844 27.226562 8.683594 186.953125 8.683594 384.003906 C 8.683594 581.058594 169.714844 740.765625 368.367188 740.765625 C 403.25 740.765625 436.964844 735.824219 468.859375 726.640625 C 285.996094 724.734375 138.324219 572.070312 138.324219 384.003906 " clip-rule="nonzero"/></clipPath><clipPath id="4debc85b07"><path d="M 0.667969 0.121094 L 460.960938 0.121094 L 460.960938 713.878906 L 0.667969 713.878906 Z M 0.667969 0.121094 " clip-rule="nonzero"/></clipPath><clipPath id="1767e0a41b"><path d="M 130.324219 357.003906 C 130.324219 168.921875 277.996094 16.277344 460.859375 14.351562 C 428.964844 5.167969 395.25 0.226562 360.367188 0.226562 C 161.714844 0.226562 0.683594 159.953125 0.683594 357.003906 C 0.683594 554.058594 161.714844 713.765625 360.367188 713.765625 C 395.25 713.765625 428.964844 708.824219 460.859375 699.640625 C 277.996094 697.734375 130.324219 545.070312 130.324219 357.003906 " clip-rule="nonzero"/></clipPath><clipPath id="0f9e367379"><rect x="0" width="461" y="0" height="714"/></clipPath><clipPath id="5d52a29f55"><path d="M 225.371094 103.34375 L 759.332031 103.34375 L 759.332031 665 L 225.371094 665 Z M 225.371094 103.34375 " clip-rule="nonzero"/></clipPath><clipPath id="c1518cafc5"><path d="M 759.316406 384.128906 C 759.316406 539.035156 639.875 664.613281 492.554688 664.613281 C 345.230469 664.613281 225.769531 539.035156 225.769531 384.128906 C 225.769531 229.222656 345.210938 103.644531 492.535156 103.644531 C 639.859375 103.644531 759.316406 229.222656 759.316406 384.128906 " clip-rule="nonzero"/></clipPath><clipPath id="eb7a5afc39"><path d="M 0.601562 0.441406 L 534.332031 0.441406 L 534.332031 561.800781 L 0.601562 561.800781 Z M 0.601562 0.441406 " clip-rule="nonzero"/></clipPath><clipPath id="f6914e5978"><path d="M 534.316406 281.128906 C 534.316406 436.035156 414.875 561.613281 267.554688 561.613281 C 120.230469 561.613281 0.769531 436.035156 0.769531 281.128906 C 0.769531 126.222656 120.210938 0.644531 267.535156 0.644531 C 414.859375 0.644531 534.316406 126.222656 534.316406 281.128906 " clip-rule="nonzero"/></clipPath><clipPath id="21e4a0f8a2"><rect x="0" width="535" y="0" height="562"/></clipPath><clipPath id="2c7479c75d"><rect x="0" width="3" y="0" height="6"/></clipPath></defs><g clip-path="url(#d0e8ab2f88)"><g clip-path="url(#4e66b9588f)"><g transform="matrix(1, 0, 0, 1, 8, 27)"><g clip-path="url(#0f9e367379)"><g clip-path="url(#4debc85b07)"><g clip-path="url(#1767e0a41b)"><rect x="-176.96" width="1105.92" fill="#00f5ac" height="1105.919991" y="-195.959999" fill-opacity="1"/></g></g></g></g></g></g><g clip-path="url(#5d52a29f55)"><g clip-path="url(#c1518cafc5)"><g transform="matrix(1, 0, 0, 1, 225, 103)"><g clip-path="url(#21e4a0f8a2)"><g clip-path="url(#eb7a5afc39)"><g clip-path="url(#f6914e5978)"><rect x="-393.96" width="1105.92" fill="#00f5ac" height="1105.919991" y="-271.959999" fill-opacity="1"/></g></g></g></g></g></g><g transform="matrix(1, 0, 0, 1, 282, 424)"><g clip-path="url(#2c7479c75d)"><g fill="#000000" fill-opacity="1"><g transform="translate(0.995995, 4.52122)"><g><path d="M 0.359375 -3.234375 L 0.78125 -3.234375 L 0.78125 0 L 0.359375 0 Z M 0.359375 -3.234375 "/></g></g></g></g></g></svg>