<svg xmlns="http://www.w3.org/2000/svg" xmlns:xlink="http://www.w3.org/1999/xlink" width="1600" zoomAndPan="magnify" viewBox="0 0 1200 749.999995" height="1000" preserveAspectRatio="xMidYMid meet" version="1.0"><defs><g/><clipPath id="db29ffa8fa"><path d="M 855.933594 0 L 1200 0 L 1200 375 L 855.933594 375 Z M 855.933594 0 " clip-rule="nonzero"/></clipPath><clipPath id="1a7a5d19bc"><path d="M 2.746094 3.257812 L 127 3.257812 L 127 192.742188 L 2.746094 192.742188 Z M 2.746094 3.257812 " clip-rule="nonzero"/></clipPath><clipPath id="6f50d14703"><path d="M 37.742188 98 C 37.742188 48.058594 77.601562 7.527344 126.957031 7.015625 C 118.351562 4.578125 109.25 3.265625 99.835938 3.265625 C 46.214844 3.265625 2.753906 45.675781 2.753906 98 C 2.753906 150.324219 46.214844 192.734375 99.835938 192.734375 C 109.25 192.734375 118.351562 191.421875 126.957031 188.984375 C 77.601562 188.476562 37.742188 147.941406 37.742188 98 " clip-rule="nonzero"/></clipPath><clipPath id="85edde7d8f"><path d="M 0.746094 0.257812 L 124.960938 0.257812 L 124.960938 189.742188 L 0.746094 189.742188 Z M 0.746094 0.257812 " clip-rule="nonzero"/></clipPath><clipPath id="cc86d88ec1"><path d="M 35.742188 95 C 35.742188 45.058594 75.601562 4.527344 124.957031 4.015625 C 116.351562 1.578125 107.25 0.265625 97.835938 0.265625 C 44.214844 0.265625 0.753906 42.675781 0.753906 95 C 0.753906 147.324219 44.214844 189.734375 97.835938 189.734375 C 107.25 189.734375 116.351562 188.421875 124.957031 185.984375 C 75.601562 185.476562 35.742188 144.941406 35.742188 95 " clip-rule="nonzero"/></clipPath><clipPath id="5e3275014b"><rect x="0" width="125" y="0" height="190"/></clipPath><clipPath id="b370bda678"><path d="M 61.230469 23.375 L 205.796875 23.375 L 205.796875 172.625 L 61.230469 172.625 Z M 61.230469 23.375 " clip-rule="nonzero"/></clipPath><clipPath id="d77b6256e1"><path d="M 205.355469 98.035156 C 205.355469 139.167969 173.117188 172.511719 133.355469 172.511719 C 93.589844 172.511719 61.347656 139.167969 61.347656 98.035156 C 61.347656 56.902344 93.585938 23.554688 133.347656 23.554688 C 173.113281 23.554688 205.355469 56.902344 205.355469 98.035156 " clip-rule="nonzero"/></clipPath><clipPath id="1feb5c3969"><path d="M 0.230469 0.480469 L 144.441406 0.480469 L 144.441406 149.519531 L 0.230469 149.519531 Z M 0.230469 0.480469 " clip-rule="nonzero"/></clipPath><clipPath id="e117ce7bcd"><path d="M 144.355469 75.035156 C 144.355469 116.167969 112.117188 149.511719 72.355469 149.511719 C 32.589844 149.511719 0.347656 116.167969 0.347656 75.035156 C 0.347656 33.902344 32.585938 0.554688 72.347656 0.554688 C 112.113281 0.554688 144.355469 33.902344 144.355469 75.035156 " clip-rule="nonzero"/></clipPath><clipPath id="af64f221ac"><rect x="0" width="145" y="0" height="150"/></clipPath><clipPath id="2fb500770b"><path d="M 236.328125 75 L 287.882812 75 L 287.882812 132.765625 L 236.328125 132.765625 Z M 236.328125 75 " clip-rule="nonzero"/></clipPath><clipPath id="bfcdaa22f8"><path d="M 236.359375 112.789062 L 251.324219 112.789062 C 251.324219 113.03125 251.34375 113.335938 251.378906 113.707031 C 251.417969 114.078125 251.628906 114.746094 252.015625 115.726562 C 252.398438 116.707031 252.933594 117.566406 253.625 118.296875 C 254.320312 119.027344 255.425781 119.703125 256.964844 120.316406 C 258.503906 120.929688 260.339844 121.234375 262.492188 121.234375 L 262.839844 121.234375 C 268.976562 121.234375 272.046875 119.277344 272.046875 115.359375 L 272.046875 115.117188 C 271.972656 113.15625 270.207031 111.566406 266.75 110.34375 C 263.292969 109.121094 259.476562 108.164062 255.296875 107.46875 C 251.113281 106.777344 247.199219 105.230469 243.550781 102.820312 C 239.902344 100.410156 237.972656 97.164062 237.742188 93.082031 L 237.742188 91.980469 C 237.742188 87.65625 239.851562 83.777344 244.074219 80.351562 C 248.300781 76.925781 254.046875 75.21875 261.339844 75.21875 C 265.867188 75.21875 269.839844 75.8125 273.253906 76.996094 C 276.667969 78.175781 279.160156 79.625 280.734375 81.339844 C 282.3125 83.058594 283.558594 84.769531 284.476562 86.480469 C 285.398438 88.191406 285.9375 89.664062 286.089844 90.886719 L 286.320312 92.597656 L 271.242188 92.597656 C 271.242188 92.433594 271.199219 92.214844 271.125 91.921875 C 271.050781 91.632812 270.816406 91.167969 270.433594 90.515625 C 270.054688 89.863281 269.554688 89.273438 268.941406 88.746094 C 268.324219 88.214844 267.363281 87.726562 266.0625 87.277344 C 264.757812 86.828125 263.21875 86.605469 261.457031 86.605469 C 258.539062 86.605469 256.277344 87.136719 254.664062 88.195312 C 253.125 89.175781 252.359375 90.355469 252.359375 91.746094 C 252.359375 91.828125 252.398438 92.296875 252.472656 93.152344 C 252.546875 94.003906 253.796875 94.929688 256.214844 95.902344 C 258.632812 96.878906 261.507812 97.722656 264.851562 98.410156 C 268.195312 99.101562 271.546875 99.941406 274.921875 100.921875 C 278.296875 101.898438 281.214844 103.488281 283.671875 105.695312 C 286.128906 107.898438 287.429688 110.710938 287.585938 114.136719 L 287.585938 115.484375 C 287.585938 120.457031 285.4375 124.578125 281.140625 127.84375 C 276.839844 131.105469 270.316406 132.738281 261.570312 132.738281 C 257.039062 132.738281 253.070312 132.042969 249.65625 130.65625 C 246.242188 129.269531 243.722656 127.597656 242.117188 125.640625 C 240.507812 123.679688 239.21875 121.742188 238.257812 119.824219 C 237.296875 117.90625 236.742188 116.257812 236.589844 114.867188 Z M 236.359375 112.789062 " clip-rule="nonzero"/></clipPath><clipPath id="ad0e9cda1a"><path d="M 0.328125 0.078125 L 51.761719 0.078125 L 51.761719 57.765625 L 0.328125 57.765625 Z M 0.328125 0.078125 " clip-rule="nonzero"/></clipPath><clipPath id="8230e56c4f"><path d="M 0.359375 37.789062 L 15.324219 37.789062 C 15.324219 38.03125 15.34375 38.335938 15.378906 38.707031 C 15.417969 39.078125 15.628906 39.746094 16.015625 40.726562 C 16.398438 41.707031 16.933594 42.566406 17.625 43.296875 C 18.320312 44.027344 19.425781 44.703125 20.964844 45.316406 C 22.503906 45.929688 24.339844 46.234375 26.492188 46.234375 L 26.839844 46.234375 C 32.976562 46.234375 36.046875 44.277344 36.046875 40.359375 L 36.046875 40.117188 C 35.972656 38.15625 34.207031 36.566406 30.75 35.34375 C 27.292969 34.121094 23.476562 33.164062 19.296875 32.46875 C 15.113281 31.777344 11.199219 30.230469 7.550781 27.820312 C 3.902344 25.410156 1.972656 22.164062 1.742188 18.082031 L 1.742188 16.980469 C 1.742188 12.65625 3.851562 8.777344 8.074219 5.351562 C 12.300781 1.925781 18.046875 0.21875 25.339844 0.21875 C 29.867188 0.21875 33.839844 0.8125 37.253906 1.996094 C 40.667969 3.175781 43.160156 4.625 44.734375 6.339844 C 46.3125 8.058594 47.558594 9.769531 48.476562 11.480469 C 49.398438 13.191406 49.9375 14.664062 50.089844 15.886719 L 50.320312 17.597656 L 35.242188 17.597656 C 35.242188 17.433594 35.199219 17.214844 35.125 16.921875 C 35.050781 16.632812 34.816406 16.167969 34.433594 15.515625 C 34.054688 14.863281 33.554688 14.273438 32.941406 13.746094 C 32.324219 13.214844 31.363281 12.726562 30.0625 12.277344 C 28.757812 11.828125 27.21875 11.605469 25.457031 11.605469 C 22.539062 11.605469 20.277344 12.136719 18.664062 13.195312 C 17.125 14.175781 16.359375 15.355469 16.359375 16.746094 C 16.359375 16.828125 16.398438 17.296875 16.472656 18.152344 C 16.546875 19.003906 17.796875 19.929688 20.214844 20.902344 C 22.632812 21.878906 25.507812 22.722656 28.851562 23.410156 C 32.195312 24.101562 35.546875 24.941406 38.921875 25.921875 C 42.296875 26.898438 45.214844 28.488281 47.671875 30.695312 C 50.128906 32.898438 51.429688 35.710938 51.585938 39.136719 L 51.585938 40.484375 C 51.585938 45.457031 49.4375 49.578125 45.140625 52.84375 C 40.839844 56.105469 34.316406 57.738281 25.570312 57.738281 C 21.039062 57.738281 17.070312 57.042969 13.65625 55.65625 C 10.242188 54.269531 7.722656 52.597656 6.117188 50.640625 C 4.507812 48.679688 3.21875 46.742188 2.257812 44.824219 C 1.296875 42.90625 0.742188 41.257812 0.589844 39.867188 Z M 0.359375 37.789062 " clip-rule="nonzero"/></clipPath><clipPath id="e2ab17b108"><rect x="0" width="52" y="0" height="58"/></clipPath><clipPath id="67f409c8b4"><path d="M 287.550781 75 L 347 75 L 347 132.765625 L 287.550781 132.765625 Z M 287.550781 75 " clip-rule="nonzero"/></clipPath><clipPath id="875a8eb759"><path d="M 302.898438 103.972656 C 302.898438 108.703125 304.128906 112.625 306.585938 115.722656 C 309.039062 118.820312 312.609375 120.375 317.292969 120.375 C 321.898438 120.375 325.445312 118.800781 327.941406 115.660156 C 330.433594 112.519531 331.683594 108.625 331.683594 103.972656 C 331.683594 99.078125 330.453125 95.121094 327.996094 92.101562 C 325.539062 89.082031 321.972656 87.570312 317.289062 87.570312 C 312.605469 87.570312 309.035156 89.082031 306.578125 92.101562 C 304.121094 95.121094 302.894531 99.078125 302.894531 103.972656 M 295.761719 83.414062 C 300.980469 77.945312 308.15625 75.214844 317.292969 75.214844 C 326.429688 75.214844 333.625 77.945312 338.878906 83.414062 C 344.136719 88.878906 346.765625 95.734375 346.765625 103.972656 C 346.765625 112.296875 344.152344 119.144531 338.933594 124.53125 C 333.636719 130 326.425781 132.734375 317.292969 132.734375 C 308.160156 132.734375 300.960938 129.980469 295.707031 124.472656 C 290.449219 118.960938 287.820312 112.132812 287.820312 103.972656 C 287.820312 95.734375 290.46875 88.878906 295.761719 83.414062 " clip-rule="nonzero"/></clipPath><clipPath id="8ba2a91bb8"><path d="M 0.761719 0.078125 L 59.800781 0.078125 L 59.800781 57.765625 L 0.761719 57.765625 Z M 0.761719 0.078125 " clip-rule="nonzero"/></clipPath><clipPath id="68b1db48a4"><path d="M 15.898438 28.972656 C 15.898438 33.703125 17.128906 37.625 19.585938 40.722656 C 22.039062 43.820312 25.609375 45.375 30.292969 45.375 C 34.898438 45.375 38.445312 43.800781 40.941406 40.660156 C 43.433594 37.519531 44.683594 33.625 44.683594 28.972656 C 44.683594 24.078125 43.453125 20.121094 40.996094 17.101562 C 38.539062 14.082031 34.972656 12.570312 30.289062 12.570312 C 25.605469 12.570312 22.035156 14.082031 19.578125 17.101562 C 17.121094 20.121094 15.894531 24.078125 15.894531 28.972656 M 8.761719 8.414062 C 13.980469 2.945312 21.15625 0.214844 30.292969 0.214844 C 39.429688 0.214844 46.625 2.945312 51.878906 8.414062 C 57.136719 13.878906 59.765625 20.734375 59.765625 28.972656 C 59.765625 37.296875 57.152344 44.144531 51.933594 49.53125 C 46.636719 55 39.425781 57.734375 30.292969 57.734375 C 21.160156 57.734375 13.960938 54.980469 8.707031 49.472656 C 3.449219 43.960938 0.820312 37.132812 0.820312 28.972656 C 0.820312 20.734375 3.46875 13.878906 8.761719 8.414062 " clip-rule="nonzero"/></clipPath><clipPath id="d8dbd19b7f"><rect x="0" width="60" y="0" height="58"/></clipPath><clipPath id="4eb1d088cb"><path d="M 348.027344 76.253906 L 399.914062 76.253906 L 399.914062 132.765625 L 348.027344 132.765625 Z M 348.027344 76.253906 " clip-rule="nonzero"/></clipPath><clipPath id="bf8527a163"><path d="M 362.996094 76.441406 L 362.996094 106.304688 C 362.996094 111.363281 363.839844 115.015625 365.527344 117.253906 C 367.21875 119.496094 369.941406 120.621094 373.703125 120.621094 C 376.234375 120.621094 378.285156 120.152344 379.863281 119.214844 C 381.4375 118.277344 382.585938 116.808594 383.316406 114.808594 C 384.050781 112.804688 384.507812 110.8125 384.699219 108.8125 C 384.894531 106.808594 384.988281 104.222656 384.988281 101.042969 L 384.988281 76.441406 L 399.839844 76.441406 L 399.839844 131.507812 L 385.328125 131.507812 L 385.328125 124.78125 C 382.101562 130.003906 377.460938 132.652344 371.398438 132.734375 L 370.480469 132.734375 C 362.496094 132.734375 356.78125 130.550781 353.324219 126.1875 C 349.871094 121.820312 348.144531 115.191406 348.144531 106.304688 L 348.144531 76.441406 Z M 362.996094 76.441406 " clip-rule="nonzero"/></clipPath><clipPath id="5964012929"><path d="M 0.0273438 0.28125 L 51.914062 0.28125 L 51.914062 56.765625 L 0.0273438 56.765625 Z M 0.0273438 0.28125 " clip-rule="nonzero"/></clipPath><clipPath id="6cdaf20083"><path d="M 14.996094 0.441406 L 14.996094 30.304688 C 14.996094 35.363281 15.839844 39.015625 17.527344 41.253906 C 19.21875 43.496094 21.941406 44.621094 25.703125 44.621094 C 28.234375 44.621094 30.285156 44.152344 31.863281 43.214844 C 33.4375 42.277344 34.585938 40.808594 35.316406 38.808594 C 36.050781 36.804688 36.507812 34.8125 36.699219 32.8125 C 36.894531 30.808594 36.988281 28.222656 36.988281 25.042969 L 36.988281 0.441406 L 51.839844 0.441406 L 51.839844 55.507812 L 37.328125 55.507812 L 37.328125 48.78125 C 34.101562 54.003906 29.460938 56.652344 23.398438 56.734375 L 22.480469 56.734375 C 14.496094 56.734375 8.78125 54.550781 5.324219 50.1875 C 1.871094 45.820312 0.144531 39.191406 0.144531 30.304688 L 0.144531 0.441406 Z M 14.996094 0.441406 " clip-rule="nonzero"/></clipPath><clipPath id="0c3edff566"><rect x="0" width="52" y="0" height="57"/></clipPath><clipPath id="5e627d6b61"><path d="M 403.878906 75 L 458 75 L 458 131.773438 L 403.878906 131.773438 Z M 403.878906 75 " clip-rule="nonzero"/></clipPath><clipPath id="0baf98a21a"><path d="M 418.257812 76.441406 L 418.257812 84.148438 C 421.789062 78.273438 427.003906 75.296875 433.917969 75.21875 L 434.722656 75.21875 C 443.167969 75.21875 449.113281 77.585938 452.566406 82.316406 C 456.023438 87.046875 457.75 93.816406 457.75 102.632812 L 457.75 131.511719 L 442.890625 131.511719 L 442.890625 102.632812 C 442.890625 92.761719 439.433594 87.78125 432.527344 87.703125 L 432.183594 87.703125 C 427.578125 87.703125 424.199219 89.316406 422.050781 92.539062 C 419.902344 95.757812 418.824219 100.347656 418.824219 106.304688 L 418.824219 131.511719 L 403.980469 131.511719 L 403.980469 76.441406 Z M 418.257812 76.441406 " clip-rule="nonzero"/></clipPath><clipPath id="6d27e0600c"><path d="M 0.921875 0.078125 L 54.921875 0.078125 L 54.921875 56.71875 L 0.921875 56.71875 Z M 0.921875 0.078125 " clip-rule="nonzero"/></clipPath><clipPath id="ac45f3d3d3"><path d="M 15.257812 1.441406 L 15.257812 9.148438 C 18.789062 3.273438 24.003906 0.296875 30.917969 0.21875 L 31.722656 0.21875 C 40.167969 0.21875 46.113281 2.585938 49.566406 7.316406 C 53.023438 12.046875 54.75 18.816406 54.75 27.632812 L 54.75 56.511719 L 39.890625 56.511719 L 39.890625 27.632812 C 39.890625 17.761719 36.433594 12.78125 29.527344 12.703125 L 29.183594 12.703125 C 24.578125 12.703125 21.199219 14.316406 19.050781 17.539062 C 16.902344 20.757812 15.824219 25.347656 15.824219 31.304688 L 15.824219 56.511719 L 0.980469 56.511719 L 0.980469 1.441406 Z M 15.257812 1.441406 " clip-rule="nonzero"/></clipPath><clipPath id="51a3eaf955"><rect x="0" width="55" y="0" height="57"/></clipPath><clipPath id="51c43412af"><path d="M 459.066406 52.789062 L 517.5625 52.789062 L 517.5625 132.765625 L 459.066406 132.765625 Z M 459.066406 52.789062 " clip-rule="nonzero"/></clipPath><clipPath id="0e711cd5b0"><path d="M 474.207031 104.09375 C 474.207031 109.234375 475.566406 113.191406 478.292969 115.964844 C 481.023438 118.742188 484.453125 120.125 488.601562 120.125 C 492.898438 120.125 496.351562 118.738281 498.960938 115.964844 C 501.574219 113.195312 502.875 109.195312 502.875 103.972656 C 502.875 98.339844 501.589844 94.242188 499.019531 91.675781 C 496.445312 89.105469 492.972656 87.820312 488.601562 87.820312 C 484.375 87.820312 480.925781 89.226562 478.238281 92.046875 C 475.550781 94.863281 474.210938 98.882812 474.210938 104.097656 M 466.953125 82.925781 C 471.710938 77.867188 478.003906 75.339844 485.832031 75.339844 C 486.675781 75.339844 487.519531 75.382812 488.367188 75.460938 C 494.425781 75.789062 499.148438 78.359375 502.523438 83.167969 L 502.523438 52.820312 L 517.378906 52.820312 L 517.378906 131.507812 L 502.871094 131.507812 L 502.871094 123.921875 C 499.644531 129.226562 494.886719 132.082031 488.59375 132.488281 C 487.519531 132.570312 486.449219 132.609375 485.371094 132.609375 C 477.769531 132.609375 471.496094 130.058594 466.542969 124.964844 C 461.59375 119.867188 459.117188 112.910156 459.117188 104.097656 C 459.117188 95.535156 461.726562 88.476562 466.949219 82.925781 " clip-rule="nonzero"/></clipPath><clipPath id="8850da8de4"><path d="M 0.0664062 0.789062 L 58.441406 0.789062 L 58.441406 80.679688 L 0.0664062 80.679688 Z M 0.0664062 0.789062 " clip-rule="nonzero"/></clipPath><clipPath id="62c982162d"><path d="M 15.207031 52.09375 C 15.207031 57.234375 16.566406 61.191406 19.292969 63.964844 C 22.023438 66.742188 25.453125 68.125 29.601562 68.125 C 33.898438 68.125 37.351562 66.738281 39.960938 63.964844 C 42.574219 61.195312 43.875 57.195312 43.875 51.972656 C 43.875 46.339844 42.589844 42.242188 40.019531 39.675781 C 37.445312 37.105469 33.972656 35.820312 29.601562 35.820312 C 25.375 35.820312 21.925781 37.226562 19.238281 40.046875 C 16.550781 42.863281 15.210938 46.882812 15.210938 52.097656 M 7.953125 30.925781 C 12.710938 25.867188 19.003906 23.339844 26.832031 23.339844 C 27.675781 23.339844 28.519531 23.382812 29.367188 23.460938 C 35.425781 23.789062 40.148438 26.359375 43.523438 31.167969 L 43.523438 0.820312 L 58.378906 0.820312 L 58.378906 79.507812 L 43.871094 79.507812 L 43.871094 71.921875 C 40.644531 77.226562 35.886719 80.082031 29.59375 80.488281 C 28.519531 80.570312 27.449219 80.609375 26.371094 80.609375 C 18.769531 80.609375 12.496094 78.058594 7.542969 72.964844 C 2.59375 67.867188 0.117188 60.910156 0.117188 52.097656 C 0.117188 43.535156 2.726562 36.476562 7.949219 30.925781 " clip-rule="nonzero"/></clipPath><clipPath id="e5243b9c7e"><rect x="0" width="59" y="0" height="81"/></clipPath><clipPath id="7b4eaa7c4e"><path d="M 539.648438 75.066406 L 598.277344 75.066406 L 598.277344 154 L 539.648438 154 Z M 539.648438 75.066406 " clip-rule="nonzero"/></clipPath><clipPath id="a4a803c145"><path d="M 554.449219 103.972656 C 554.449219 109.195312 555.753906 113.191406 558.363281 115.964844 C 560.976562 118.742188 564.425781 120.125 568.726562 120.125 C 572.871094 120.125 576.300781 118.738281 579.03125 115.964844 C 581.761719 113.195312 583.121094 109.238281 583.121094 104.09375 C 583.121094 98.875 581.773438 94.851562 579.09375 92.039062 C 576.410156 89.226562 572.949219 87.816406 568.730469 87.816406 C 564.355469 87.816406 560.882812 89.101562 558.3125 91.671875 C 555.742188 94.238281 554.453125 98.335938 554.453125 103.96875 M 539.941406 76.441406 L 554.449219 76.441406 L 554.449219 83.660156 C 557.824219 78.523438 562.664062 75.789062 568.957031 75.460938 C 569.800781 75.382812 570.644531 75.339844 571.488281 75.339844 C 579.316406 75.339844 585.722656 77.992188 590.714844 83.296875 C 595.707031 88.597656 598.199219 95.535156 598.199219 104.097656 C 598.199219 112.910156 595.722656 119.867188 590.769531 124.964844 C 585.820312 130.058594 579.546875 132.609375 571.945312 132.609375 C 570.871094 132.609375 569.800781 132.570312 568.722656 132.488281 C 562.660156 132 558.011719 129.347656 554.792969 124.53125 L 554.792969 153.902344 L 539.941406 153.902344 Z M 539.941406 76.441406 " clip-rule="nonzero"/></clipPath><clipPath id="f9aaeee371"><path d="M 0.761719 0.320312 L 59.277344 0.320312 L 59.277344 79 L 0.761719 79 Z M 0.761719 0.320312 " clip-rule="nonzero"/></clipPath><clipPath id="f8d3bbcc15"><path d="M 15.449219 28.972656 C 15.449219 34.195312 16.753906 38.191406 19.363281 40.964844 C 21.976562 43.742188 25.425781 45.125 29.726562 45.125 C 33.871094 45.125 37.300781 43.738281 40.03125 40.964844 C 42.761719 38.195312 44.121094 34.238281 44.121094 29.09375 C 44.121094 23.875 42.773438 19.851562 40.09375 17.039062 C 37.410156 14.226562 33.949219 12.816406 29.730469 12.816406 C 25.355469 12.816406 21.882812 14.101562 19.3125 16.671875 C 16.742188 19.238281 15.453125 23.335938 15.453125 28.96875 M 0.941406 1.441406 L 15.449219 1.441406 L 15.449219 8.660156 C 18.824219 3.523438 23.664062 0.789062 29.957031 0.460938 C 30.800781 0.382812 31.644531 0.339844 32.488281 0.339844 C 40.316406 0.339844 46.722656 2.992188 51.714844 8.296875 C 56.707031 13.597656 59.199219 20.535156 59.199219 29.097656 C 59.199219 37.910156 56.722656 44.867188 51.769531 49.964844 C 46.820312 55.058594 40.546875 57.609375 32.945312 57.609375 C 31.871094 57.609375 30.800781 57.570312 29.722656 57.488281 C 23.660156 57 19.011719 54.347656 15.792969 49.53125 L 15.792969 78.902344 L 0.941406 78.902344 Z M 0.941406 1.441406 " clip-rule="nonzero"/></clipPath><clipPath id="c2b409c56f"><rect x="0" width="60" y="0" height="79"/></clipPath><clipPath id="a3cbac5bd0"><path d="M 600 53.335938 L 613.449219 53.335938 L 613.449219 131.238281 L 600 131.238281 Z M 600 53.335938 " clip-rule="nonzero"/></clipPath><clipPath id="f7195dc828"><path d="M 613.335938 131.222656 L 600.035156 131.222656 C 600.035156 131.222656 600.003906 121.222656 600.035156 114.140625 L 600.023438 53.632812 L 613.335938 53.632812 " clip-rule="nonzero"/></clipPath><clipPath id="7a01195a14"><path d="M 0 0.480469 L 13.441406 0.480469 L 13.441406 78.238281 L 0 78.238281 Z M 0 0.480469 " clip-rule="nonzero"/></clipPath><clipPath id="6d701b5242"><path d="M 13.335938 78.222656 L 0.0351562 78.222656 C 0.0351562 78.222656 0.00390625 68.222656 0.0351562 61.140625 L 0.0234375 0.632812 L 13.335938 0.632812 " clip-rule="nonzero"/></clipPath><clipPath id="ef7a8bcee5"><rect x="0" width="14" y="0" height="79"/></clipPath><clipPath id="391363f052"><path d="M 616.320312 75.886719 L 665.929688 75.886719 L 665.929688 132.878906 L 616.320312 132.878906 Z M 616.320312 75.886719 " clip-rule="nonzero"/></clipPath><clipPath id="ed2bdece96"><path d="M 631.691406 115.964844 C 631.691406 117.597656 632.421875 118.863281 633.882812 119.757812 C 635.34375 120.65625 637.183594 121.148438 639.410156 121.226562 L 639.871094 121.226562 C 643.402344 121.226562 647.199219 120.460938 649.761719 117.699219 C 652.382812 114.878906 651.777344 113.105469 651.777344 109.269531 L 651.777344 106.085938 C 648.707031 106.332031 648.949219 106.414062 647.066406 106.664062 C 645.1875 106.914062 642.867188 107.359375 640.105469 108.007812 C 637.34375 108.660156 635.246094 109.660156 633.832031 111.011719 C 632.414062 112.359375 631.703125 114.007812 631.703125 115.964844 M 665.878906 131.226562 C 661.242188 131.148438 652.5 131.226562 652.5 131.226562 C 652.5 131.226562 652.453125 128.222656 652.523438 125 C 650.910156 127.164062 645.507812 132.738281 636.757812 132.738281 C 630 132.738281 624.9375 131.191406 621.5625 128.085938 C 618.183594 124.980469 616.496094 121.070312 616.496094 116.335938 C 616.496094 104.261719 627.195312 97.574219 651.835938 96.269531 L 651.835938 95.292969 C 651.835938 89.582031 650.761719 87.28125 644.128906 86.84375 C 641.214844 86.652344 638.929688 87.332031 637.277344 88.3125 C 635.628906 89.292969 634.683594 90.273438 634.453125 91.246094 L 634.109375 92.714844 L 619.03125 92.714844 C 619.03125 92.226562 619.105469 91.59375 619.257812 90.816406 C 619.414062 90.039062 619.644531 88.3125 620.640625 86.3125 C 621.640625 84.308594 622.996094 82.589844 624.609375 81.035156 C 626.222656 79.484375 628.269531 78.234375 631.5 77.128906 C 634.90625 75.972656 637.675781 76.003906 642.171875 76 C 650.335938 75.996094 652.554688 75.839844 657.996094 78.015625 C 661.773438 79.527344 665.878906 84.476562 665.832031 90.585938 " clip-rule="nonzero"/></clipPath><clipPath id="2c63bdee45"><path d="M 0.320312 0.886719 L 49.929688 0.886719 L 49.929688 57.878906 L 0.320312 57.878906 Z M 0.320312 0.886719 " clip-rule="nonzero"/></clipPath><clipPath id="7c814928e6"><path d="M 15.691406 40.964844 C 15.691406 42.597656 16.421875 43.863281 17.882812 44.757812 C 19.34375 45.65625 21.183594 46.148438 23.410156 46.226562 L 23.871094 46.226562 C 27.402344 46.226562 31.199219 45.460938 33.761719 42.699219 C 36.382812 39.878906 35.777344 38.105469 35.777344 34.269531 L 35.777344 31.085938 C 32.707031 31.332031 32.949219 31.414062 31.066406 31.664062 C 29.1875 31.914062 26.867188 32.359375 24.105469 33.007812 C 21.34375 33.660156 19.246094 34.660156 17.832031 36.011719 C 16.414062 37.359375 15.703125 39.007812 15.703125 40.964844 M 49.878906 56.226562 C 45.242188 56.148438 36.5 56.226562 36.5 56.226562 C 36.5 56.226562 36.453125 53.222656 36.523438 50 C 34.910156 52.164062 29.507812 57.738281 20.757812 57.738281 C 14 57.738281 8.9375 56.191406 5.5625 53.085938 C 2.183594 49.980469 0.496094 46.070312 0.496094 41.335938 C 0.496094 29.261719 11.195312 22.574219 35.835938 21.269531 L 35.835938 20.292969 C 35.835938 14.582031 34.761719 12.28125 28.128906 11.84375 C 25.214844 11.652344 22.929688 12.332031 21.277344 13.3125 C 19.628906 14.292969 18.683594 15.273438 18.453125 16.246094 L 18.109375 17.714844 L 3.03125 17.714844 C 3.03125 17.226562 3.105469 16.59375 3.257812 15.816406 C 3.414062 15.039062 3.644531 13.3125 4.640625 11.3125 C 5.640625 9.308594 6.996094 7.589844 8.609375 6.035156 C 10.222656 4.484375 12.269531 3.234375 15.5 2.128906 C 18.90625 0.972656 21.675781 1.003906 26.171875 1 C 34.335938 0.996094 36.554688 0.839844 41.996094 3.015625 C 45.773438 4.527344 49.878906 9.476562 49.832031 15.585938 " clip-rule="nonzero"/></clipPath><clipPath id="a65c33fea1"><rect x="0" width="50" y="0" height="58"/></clipPath><clipPath id="16ee005ad0"><path d="M 671.183594 75.214844 L 721.285156 75.214844 L 721.285156 131.582031 L 671.183594 131.582031 Z M 671.183594 75.214844 " clip-rule="nonzero"/></clipPath><clipPath id="eef00a294d"><path d="M 685.460938 76.441406 L 685.460938 84.148438 C 688.984375 78.273438 694.207031 75.296875 701.113281 75.214844 L 701.921875 75.214844 C 710.367188 75.214844 715.019531 77.5 718.476562 82.230469 C 721.933594 86.960938 721.222656 93.824219 721.222656 102.632812 L 721.230469 131.222656 L 707.195312 131.214844 L 707.199219 102.640625 C 706.363281 92.378906 706.644531 87.78125 699.738281 87.695312 L 699.390625 87.695312 C 694.785156 87.695312 691.40625 89.308594 689.257812 92.53125 C 687.109375 95.75 686.035156 100.347656 686.035156 106.300781 L 686.035156 131.511719 L 671.183594 131.511719 L 671.183594 76.441406 Z M 685.460938 76.441406 " clip-rule="nonzero"/></clipPath><clipPath id="7fb48eb74c"><path d="M 0.183594 0.214844 L 50.285156 0.214844 L 50.285156 56.582031 L 0.183594 56.582031 Z M 0.183594 0.214844 " clip-rule="nonzero"/></clipPath><clipPath id="c1b8ac35da"><path d="M 14.460938 1.441406 L 14.460938 9.148438 C 17.984375 3.273438 23.207031 0.296875 30.113281 0.214844 L 30.921875 0.214844 C 39.367188 0.214844 44.019531 2.5 47.476562 7.230469 C 50.933594 11.960938 50.222656 18.824219 50.222656 27.632812 L 50.230469 56.222656 L 36.195312 56.214844 L 36.199219 27.640625 C 35.363281 17.378906 35.644531 12.78125 28.738281 12.695312 L 28.390625 12.695312 C 23.785156 12.695312 20.40625 14.308594 18.257812 17.53125 C 16.109375 20.75 15.035156 25.347656 15.035156 31.300781 L 15.035156 56.511719 L 0.183594 56.511719 L 0.183594 1.441406 Z M 14.460938 1.441406 " clip-rule="nonzero"/></clipPath><clipPath id="53008eb01a"><rect x="0" width="51" y="0" height="57"/></clipPath><clipPath id="17de475e93"><path d="M 726.089844 75.117188 L 780.929688 75.117188 L 780.929688 132.96875 L 726.089844 132.96875 Z M 726.089844 75.117188 " clip-rule="nonzero"/></clipPath><clipPath id="fee5182c68"><path d="M 766.390625 98.097656 L 766.390625 97.734375 C 766.390625 94.632812 765.238281 92.164062 762.933594 90.328125 C 760.632812 88.496094 757.679688 87.578125 754.070312 87.578125 C 750.382812 87.578125 747.367188 88.558594 745.03125 90.511719 C 742.691406 92.46875 741.289062 95 740.828125 98.097656 Z M 733.695312 83.171875 C 738.605469 77.867188 745.363281 75.214844 753.957031 75.214844 C 762.402344 75.214844 768.980469 77.84375 773.699219 83.109375 C 778.421875 88.375 780.78125 95.371094 780.78125 104.09375 C 780.78125 105.5625 780.699219 107.074219 780.550781 108.625 L 740.832031 108.625 C 741.136719 112.214844 742.539062 115.070312 745.035156 117.191406 C 747.527344 119.308594 750.574219 120.375 754.1875 120.375 C 755.875 120.375 757.386719 120.171875 758.734375 119.761719 C 760.078125 119.347656 761.113281 118.882812 761.84375 118.355469 C 762.574219 117.824219 763.183594 117.273438 763.683594 116.703125 C 764.1875 116.132812 764.511719 115.644531 764.664062 115.234375 L 764.894531 114.625 L 779.75 114.625 C 779.667969 115.113281 779.5 115.769531 779.234375 116.585938 C 778.964844 117.402344 778.234375 118.851562 777.042969 120.933594 C 775.851562 123.015625 774.414062 124.847656 772.726562 126.441406 C 771.035156 128.035156 768.542969 129.480469 765.242188 130.789062 C 761.941406 132.097656 758.21875 132.746094 754.074219 132.746094 C 745.785156 132.746094 739.089844 130.160156 733.984375 124.980469 C 728.878906 119.796875 726.328125 112.832031 726.328125 104.09375 C 726.328125 95.53125 728.785156 88.558594 733.695312 83.171875 " clip-rule="nonzero"/></clipPath><clipPath id="f4c603c6e3"><path d="M 0.238281 0.117188 L 54.929688 0.117188 L 54.929688 57.921875 L 0.238281 57.921875 Z M 0.238281 0.117188 " clip-rule="nonzero"/></clipPath><clipPath id="f3630f970a"><path d="M 40.390625 23.097656 L 40.390625 22.734375 C 40.390625 19.632812 39.238281 17.164062 36.933594 15.328125 C 34.632812 13.496094 31.679688 12.578125 28.070312 12.578125 C 24.382812 12.578125 21.367188 13.558594 19.03125 15.511719 C 16.691406 17.46875 15.289062 20 14.828125 23.097656 Z M 7.695312 8.171875 C 12.605469 2.867188 19.363281 0.214844 27.957031 0.214844 C 36.402344 0.214844 42.980469 2.84375 47.699219 8.109375 C 52.421875 13.375 54.78125 20.371094 54.78125 29.09375 C 54.78125 30.5625 54.699219 32.074219 54.550781 33.625 L 14.832031 33.625 C 15.136719 37.214844 16.539062 40.070312 19.035156 42.191406 C 21.527344 44.308594 24.574219 45.375 28.1875 45.375 C 29.875 45.375 31.386719 45.171875 32.734375 44.761719 C 34.078125 44.347656 35.113281 43.882812 35.84375 43.355469 C 36.574219 42.824219 37.183594 42.273438 37.683594 41.703125 C 38.1875 41.132812 38.511719 40.644531 38.664062 40.234375 L 38.894531 39.625 L 53.75 39.625 C 53.667969 40.113281 53.5 40.769531 53.234375 41.585938 C 52.964844 42.402344 52.234375 43.851562 51.042969 45.933594 C 49.851562 48.015625 48.414062 49.847656 46.726562 51.441406 C 45.035156 53.035156 42.542969 54.480469 39.242188 55.789062 C 35.941406 57.097656 32.21875 57.746094 28.074219 57.746094 C 19.785156 57.746094 13.089844 55.160156 7.984375 49.980469 C 2.878906 44.796875 0.328125 37.832031 0.328125 29.09375 C 0.328125 20.53125 2.785156 13.558594 7.695312 8.171875 " clip-rule="nonzero"/></clipPath><clipPath id="99dc0c5cbb"><rect x="0" width="55" y="0" height="58"/></clipPath><clipPath id="71cb59d6a1"><path d="M 779.125 60.050781 L 813.472656 60.050781 L 813.472656 131.761719 L 779.125 131.761719 Z M 779.125 60.050781 " clip-rule="nonzero"/></clipPath><clipPath id="92d8ee5610"><path d="M 779.285156 76.4375 L 785.960938 76.4375 L 785.960938 60.285156 L 800.8125 60.285156 L 800.8125 76.4375 L 813.25 76.4375 L 813.25 89.65625 L 800.925781 89.65625 L 800.925781 114.128906 C 800.925781 115.679688 801.195312 116.757812 801.734375 117.375 C 802.273438 117.988281 803.230469 118.292969 804.613281 118.292969 L 813.25 118.292969 L 813.25 131.507812 L 804.613281 131.507812 C 797.476562 131.507812 792.582031 130.371094 789.933594 128.082031 C 787.28125 125.792969 785.960938 121.148438 785.960938 114.132812 L 785.960938 89.65625 L 779.285156 89.65625 Z M 779.285156 76.4375 " clip-rule="nonzero"/></clipPath><clipPath id="08c7a85afd"><path d="M 0.28125 0.199219 L 34.359375 0.199219 L 34.359375 71.71875 L 0.28125 71.71875 Z M 0.28125 0.199219 " clip-rule="nonzero"/></clipPath><clipPath id="212bdda37a"><path d="M 0.285156 16.4375 L 6.960938 16.4375 L 6.960938 0.285156 L 21.8125 0.285156 L 21.8125 16.4375 L 34.25 16.4375 L 34.25 29.65625 L 21.925781 29.65625 L 21.925781 54.128906 C 21.925781 55.679688 22.195312 56.757812 22.734375 57.375 C 23.273438 57.988281 24.230469 58.292969 25.613281 58.292969 L 34.25 58.292969 L 34.25 71.507812 L 25.613281 71.507812 C 18.476562 71.507812 13.582031 70.371094 10.933594 68.082031 C 8.28125 65.792969 6.960938 61.148438 6.960938 54.132812 L 6.960938 29.65625 L 0.285156 29.65625 Z M 0.285156 16.4375 " clip-rule="nonzero"/></clipPath><clipPath id="9dd6a328ec"><rect x="0" width="35" y="0" height="72"/></clipPath><clipPath id="4956ce7ab4"><rect x="0" width="816" y="0" height="196"/></clipPath><clipPath id="7719430964"><path d="M 0 515.058594 L 283 515.058594 L 283 750 L 0 750 Z M 0 515.058594 " clip-rule="nonzero"/></clipPath></defs><rect x="-120" width="1440" fill="#ffffff" y="-74.999999" height="899.999994" fill-opacity="1"/><rect x="-120" width="1440" fill="#09deae" y="-74.999999" height="899.999994" fill-opacity="1"/><g clip-path="url(#db29ffa8fa)"><path fill="#33e1bb" d="M 1199.996094 -313.132812 C 1009.902344 -313.132812 855.933594 -159.164062 855.933594 30.929688 C 855.933594 221.027344 1009.902344 374.992188 1199.996094 374.992188 C 1390.089844 374.992188 1544.058594 221.027344 1544.058594 30.929688 C 1544.058594 -159.164062 1390.089844 -313.132812 1199.996094 -313.132812 Z M 1199.996094 -313.132812 " fill-opacity="1" fill-rule="nonzero"/></g><g transform="matrix(1, 0, 0, 1, 192, 277)"><g clip-path="url(#4956ce7ab4)"><g clip-path="url(#1a7a5d19bc)"><g clip-path="url(#6f50d14703)"><g transform="matrix(1, 0, 0, 1, 2, 3)"><g clip-path="url(#5e3275014b)"><g clip-path="url(#85edde7d8f)"><g clip-path="url(#cc86d88ec1)"><rect x="-630.8" width="2073.6" fill="#ffffff" y="-552.999998" height="1295.999991" fill-opacity="1"/></g></g></g></g></g></g><g clip-path="url(#b370bda678)"><g clip-path="url(#d77b6256e1)"><g transform="matrix(1, 0, 0, 1, 61, 23)"><g clip-path="url(#af64f221ac)"><g clip-path="url(#1feb5c3969)"><g clip-path="url(#e117ce7bcd)"><rect x="-689.8" width="2073.6" fill="#ffffff" y="-572.999998" height="1295.999991" fill-opacity="1"/></g></g></g></g></g></g><g clip-path="url(#2fb500770b)"><g clip-path="url(#bfcdaa22f8)"><g transform="matrix(1, 0, 0, 1, 236, 75)"><g clip-path="url(#e2ab17b108)"><g clip-path="url(#ad0e9cda1a)"><g clip-path="url(#8230e56c4f)"><rect x="-864.8" width="2073.6" fill="#ffffff" y="-624.999998" height="1295.999991" fill-opacity="1"/></g></g></g></g></g></g><g clip-path="url(#67f409c8b4)"><g clip-path="url(#875a8eb759)"><g transform="matrix(1, 0, 0, 1, 287, 75)"><g clip-path="url(#d8dbd19b7f)"><g clip-path="url(#8ba2a91bb8)"><g clip-path="url(#68b1db48a4)"><rect x="-915.8" width="2073.6" fill="#ffffff" y="-624.999998" height="1295.999991" fill-opacity="1"/></g></g></g></g></g></g><g clip-path="url(#4eb1d088cb)"><g clip-path="url(#bf8527a163)"><g transform="matrix(1, 0, 0, 1, 348, 76)"><g clip-path="url(#0c3edff566)"><g clip-path="url(#5964012929)"><g clip-path="url(#6cdaf20083)"><rect x="-976.8" width="2073.6" fill="#ffffff" y="-625.999998" height="1295.999991" fill-opacity="1"/></g></g></g></g></g></g><g clip-path="url(#5e627d6b61)"><g clip-path="url(#0baf98a21a)"><g transform="matrix(1, 0, 0, 1, 403, 75)"><g clip-path="url(#51a3eaf955)"><g clip-path="url(#6d27e0600c)"><g clip-path="url(#ac45f3d3d3)"><rect x="-1031.8" width="2073.6" fill="#ffffff" y="-624.999998" height="1295.999991" fill-opacity="1"/></g></g></g></g></g></g><g clip-path="url(#51c43412af)"><g clip-path="url(#0e711cd5b0)"><g transform="matrix(1, 0, 0, 1, 459, 52)"><g clip-path="url(#e5243b9c7e)"><g clip-path="url(#8850da8de4)"><g clip-path="url(#62c982162d)"><rect x="-1087.8" width="2073.6" fill="#ffffff" y="-601.999998" height="1295.999991" fill-opacity="1"/></g></g></g></g></g></g><g clip-path="url(#7b4eaa7c4e)"><g clip-path="url(#a4a803c145)"><g transform="matrix(1, 0, 0, 1, 539, 75)"><g clip-path="url(#c2b409c56f)"><g clip-path="url(#f9aaeee371)"><g clip-path="url(#f8d3bbcc15)"><rect x="-1167.8" width="2073.6" fill="#ffffff" y="-624.999998" height="1295.999991" fill-opacity="1"/></g></g></g></g></g></g><g clip-path="url(#a3cbac5bd0)"><g clip-path="url(#f7195dc828)"><g transform="matrix(1, 0, 0, 1, 600, 53)"><g clip-path="url(#ef7a8bcee5)"><g clip-path="url(#7a01195a14)"><g clip-path="url(#6d701b5242)"><rect x="-1228.8" width="2073.6" fill="#ffffff" y="-602.999998" height="1295.999991" fill-opacity="1"/></g></g></g></g></g></g><g clip-path="url(#391363f052)"><g clip-path="url(#ed2bdece96)"><g transform="matrix(1, 0, 0, 1, 616, 75)"><g clip-path="url(#a65c33fea1)"><g clip-path="url(#2c63bdee45)"><g clip-path="url(#7c814928e6)"><rect x="-1244.8" width="2073.6" fill="#ffffff" y="-624.999998" height="1295.999991" fill-opacity="1"/></g></g></g></g></g></g><g clip-path="url(#16ee005ad0)"><g clip-path="url(#eef00a294d)"><g transform="matrix(1, 0, 0, 1, 671, 75)"><g clip-path="url(#53008eb01a)"><g clip-path="url(#7fb48eb74c)"><g clip-path="url(#c1b8ac35da)"><path fill="#ffffff" d="M 0.183594 0.214844 L 50.285156 0.214844 L 50.285156 56.582031 L 0.183594 56.582031 Z M 0.183594 0.214844 " fill-opacity="1" fill-rule="nonzero"/></g></g></g></g></g></g><g clip-path="url(#17de475e93)"><g clip-path="url(#fee5182c68)"><g transform="matrix(1, 0, 0, 1, 726, 75)"><g clip-path="url(#99dc0c5cbb)"><g clip-path="url(#f4c603c6e3)"><g clip-path="url(#f3630f970a)"><rect x="-1354.8" width="2073.6" fill="#ffffff" y="-624.999998" height="1295.999991" fill-opacity="1"/></g></g></g></g></g></g><g clip-path="url(#71cb59d6a1)"><g clip-path="url(#92d8ee5610)"><g transform="matrix(1, 0, 0, 1, 779, 60)"><g clip-path="url(#9dd6a328ec)"><g clip-path="url(#08c7a85afd)"><g clip-path="url(#212bdda37a)"><rect x="-1407.8" width="2073.6" fill="#ffffff" y="-609.999998" height="1295.999991" fill-opacity="1"/></g></g></g></g></g></g><g fill="#000000" fill-opacity="1"><g transform="translate(297.629481, 165.184672)"><g><path d="M 0.421875 -3.796875 L 0.921875 -3.796875 L 0.921875 0 L 0.421875 0 Z M 0.421875 -3.796875 "/></g></g></g></g></g><g clip-path="url(#7719430964)"><path fill="#33e1bb" d="M 48.003906 515.058594 C -81.800781 515.058594 -186.933594 620.191406 -186.933594 749.996094 C -186.933594 879.796875 -81.800781 984.933594 48.003906 984.933594 C 177.804688 984.933594 282.941406 879.796875 282.941406 749.996094 C 282.941406 620.191406 177.804688 515.058594 48.003906 515.058594 Z M 48.003906 515.058594 " fill-opacity="1" fill-rule="nonzero"/></g></svg>