<svg xmlns="http://www.w3.org/2000/svg" xmlns:xlink="http://www.w3.org/1999/xlink" width="1024" zoomAndPan="magnify" viewBox="0 0 768 767.999994" height="1024" preserveAspectRatio="xMidYMid meet" version="1.0"><defs><clipPath id="bc7ced5b28"><path d="M 0.480469 208.382812 L 41.429688 208.382812 L 41.429688 415.675781 L 0.480469 415.675781 Z M 0.480469 208.382812 " clip-rule="nonzero"/></clipPath><clipPath id="4f5fb68860"><path d="M 20.882812 208.382812 C 9.601562 208.382812 0.480469 217.503906 0.480469 228.785156 L 0.480469 395.242188 C 0.480469 406.503906 9.601562 415.644531 20.882812 415.644531 C 32.167969 415.644531 41.289062 406.523438 41.289062 395.242188 L 41.289062 228.785156 C 41.269531 217.503906 32.148438 208.382812 20.882812 208.382812 " clip-rule="nonzero"/></clipPath><clipPath id="c0a2835e02"><path d="M 0.480469 0.382812 L 41.429688 0.382812 L 41.429688 207.675781 L 0.480469 207.675781 Z M 0.480469 0.382812 " clip-rule="nonzero"/></clipPath><clipPath id="8e6b65d12d"><path d="M 20.882812 0.382812 C 9.601562 0.382812 0.480469 9.503906 0.480469 20.785156 L 0.480469 187.242188 C 0.480469 198.503906 9.601562 207.644531 20.882812 207.644531 C 32.167969 207.644531 41.289062 198.523438 41.289062 187.242188 L 41.289062 20.785156 C 41.269531 9.503906 32.148438 0.382812 20.882812 0.382812 " clip-rule="nonzero"/></clipPath><clipPath id="bef7f71672"><rect x="0" width="42" y="0" height="208"/></clipPath><clipPath id="d1436147a5"><path d="M 100.425781 132 L 141.375 132 L 141.375 373.546875 L 100.425781 373.546875 Z M 100.425781 132 " clip-rule="nonzero"/></clipPath><clipPath id="25f75699c1"><path d="M 120.828125 132 C 109.546875 132 100.425781 141.121094 100.425781 152.402344 L 100.425781 353.035156 C 100.425781 364.296875 109.546875 373.4375 120.828125 373.4375 C 132.113281 373.4375 141.234375 364.316406 141.234375 353.035156 L 141.234375 152.402344 C 141.214844 141.121094 132.09375 132 120.828125 132 " clip-rule="nonzero"/></clipPath><clipPath id="17e28ee512"><path d="M 0.425781 0 L 41.28125 0 L 41.28125 241.441406 L 0.425781 241.441406 Z M 0.425781 0 " clip-rule="nonzero"/></clipPath><clipPath id="e2262018ee"><path d="M 20.828125 0 C 9.546875 0 0.425781 9.121094 0.425781 20.402344 L 0.425781 221.035156 C 0.425781 232.296875 9.546875 241.4375 20.828125 241.4375 C 32.113281 241.4375 41.234375 232.316406 41.234375 221.035156 L 41.234375 20.402344 C 41.214844 9.121094 32.09375 0 20.828125 0 " clip-rule="nonzero"/></clipPath><clipPath id="68625881f6"><rect x="0" width="42" y="0" height="242"/></clipPath><clipPath id="23a7ea765e"><path d="M 100.425781 407.890625 L 141.375 407.890625 L 141.375 492 L 100.425781 492 Z M 100.425781 407.890625 " clip-rule="nonzero"/></clipPath><clipPath id="9834b32271"><path d="M 120.828125 407.890625 C 109.546875 407.890625 100.425781 417.011719 100.425781 428.296875 L 100.425781 471.613281 C 100.425781 482.875 109.546875 491.996094 120.828125 491.996094 C 132.113281 491.996094 141.234375 482.875 141.234375 471.613281 L 141.234375 428.296875 C 141.214844 417.011719 132.09375 407.890625 120.828125 407.890625 " clip-rule="nonzero"/></clipPath><clipPath id="06afeee422"><path d="M 0.425781 0.890625 L 41.28125 0.890625 L 41.28125 85 L 0.425781 85 Z M 0.425781 0.890625 " clip-rule="nonzero"/></clipPath><clipPath id="ae3993315b"><path d="M 20.828125 0.890625 C 9.546875 0.890625 0.425781 10.011719 0.425781 21.296875 L 0.425781 64.613281 C 0.425781 75.875 9.546875 84.996094 20.828125 84.996094 C 32.113281 84.996094 41.234375 75.875 41.234375 64.613281 L 41.234375 21.296875 C 41.214844 10.011719 32.09375 0.890625 20.828125 0.890625 " clip-rule="nonzero"/></clipPath><clipPath id="9689f84fb0"><rect x="0" width="42" y="0" height="85"/></clipPath><clipPath id="08d05b079b"><path d="M 200.371094 0.894531 L 341.675781 0.894531 L 341.675781 623.300781 L 200.371094 623.300781 Z M 200.371094 0.894531 " clip-rule="nonzero"/></clipPath><clipPath id="72a1874e74"><path d="M 320.082031 0.910156 C 308.925781 1.242188 300.320312 10.96875 300.320312 22.140625 L 300.320312 138.023438 C 300.320312 154.359375 287.078125 167.601562 270.738281 167.601562 C 254.402344 167.601562 241.160156 154.359375 241.160156 138.023438 L 241.160156 68.882812 C 241.160156 57.707031 232.550781 47.984375 221.394531 47.636719 C 209.839844 47.304688 200.371094 56.554688 200.371094 68.039062 L 200.371094 555.109375 C 200.371094 566.28125 208.976562 576.007812 220.132812 576.355469 C 231.691406 576.703125 241.160156 567.433594 241.160156 555.96875 L 241.160156 349.808594 C 241.160156 333.46875 254.402344 320.226562 270.738281 320.226562 C 287.078125 320.226562 300.320312 333.46875 300.320312 349.808594 L 300.320312 601.851562 C 300.320312 613.023438 308.925781 622.75 320.082031 623.097656 C 331.640625 623.445312 341.109375 614.175781 341.109375 602.710938 L 341.109375 299.84375 C 341.109375 288.578125 331.96875 279.457031 320.703125 279.457031 L 241.160156 279.457031 L 241.160156 208.390625 L 321.621094 208.390625 C 332.847656 208.390625 341.621094 199.214844 341.109375 188.007812 L 341.109375 187.96875 C 341.109375 187.953125 341.109375 187.953125 341.109375 187.933594 L 341.109375 21.296875 C 341.109375 9.8125 331.640625 0.5625 320.082031 0.910156 " clip-rule="nonzero"/></clipPath><clipPath id="0fe10f2ed3"><path d="M 0.371094 0.894531 L 141.199219 0.894531 L 141.199219 623.300781 L 0.371094 623.300781 Z M 0.371094 0.894531 " clip-rule="nonzero"/></clipPath><clipPath id="ee43222df4"><path d="M 120.082031 0.910156 C 108.925781 1.242188 100.320312 10.96875 100.320312 22.140625 L 100.320312 138.023438 C 100.320312 154.359375 87.078125 167.601562 70.738281 167.601562 C 54.402344 167.601562 41.160156 154.359375 41.160156 138.023438 L 41.160156 68.882812 C 41.160156 57.707031 32.550781 47.984375 21.394531 47.636719 C 9.839844 47.304688 0.371094 56.554688 0.371094 68.039062 L 0.371094 555.109375 C 0.371094 566.28125 8.976562 576.007812 20.132812 576.355469 C 31.691406 576.703125 41.160156 567.433594 41.160156 555.96875 L 41.160156 349.808594 C 41.160156 333.46875 54.402344 320.226562 70.738281 320.226562 C 87.078125 320.226562 100.320312 333.46875 100.320312 349.808594 L 100.320312 601.851562 C 100.320312 613.023438 108.925781 622.75 120.082031 623.097656 C 131.640625 623.445312 141.109375 614.175781 141.109375 602.710938 L 141.109375 299.84375 C 141.109375 288.578125 131.96875 279.457031 120.703125 279.457031 L 41.160156 279.457031 L 41.160156 208.390625 L 121.621094 208.390625 C 132.847656 208.390625 141.621094 199.214844 141.109375 188.007812 L 141.109375 187.96875 C 141.109375 187.953125 141.109375 187.953125 141.109375 187.933594 L 141.109375 21.296875 C 141.109375 9.8125 131.640625 0.5625 120.082031 0.910156 " clip-rule="nonzero"/></clipPath><clipPath id="ba407e8647"><rect x="0" width="142" y="0" height="624"/></clipPath><clipPath id="9c0f7be955"><path d="M 410.328125 0.71875 L 552 0.71875 L 552 623.292969 L 410.328125 623.292969 Z M 410.328125 0.71875 " clip-rule="nonzero"/></clipPath><clipPath id="df16356564"><path d="M 530.609375 47.652344 C 519.453125 47.984375 510.84375 57.726562 510.84375 68.898438 L 510.84375 138.023438 C 510.84375 154.359375 497.601562 167.601562 481.265625 167.601562 C 464.929688 167.601562 451.683594 154.359375 451.683594 138.023438 L 451.683594 22.140625 C 451.683594 10.96875 443.078125 1.242188 431.921875 0.894531 C 420.367188 0.5625 410.894531 9.8125 410.894531 21.296875 L 410.894531 187.933594 C 410.894531 187.953125 410.894531 187.953125 410.894531 187.96875 C 410.382812 199.199219 419.175781 208.390625 430.421875 208.390625 L 510.84375 208.390625 L 510.84375 279.457031 L 431.300781 279.457031 C 420.035156 279.4375 410.894531 288.578125 410.894531 299.84375 L 410.894531 601.867188 C 410.894531 613.042969 419.503906 622.765625 430.660156 623.117188 C 442.214844 623.464844 451.683594 614.195312 451.683594 602.730469 L 451.683594 349.808594 C 451.683594 333.46875 464.929688 320.226562 481.265625 320.226562 C 497.601562 320.226562 510.84375 333.46875 510.84375 349.808594 L 510.84375 555.109375 C 510.84375 566.28125 519.453125 576.007812 530.609375 576.355469 C 542.164062 576.703125 551.636719 567.433594 551.636719 555.96875 L 551.636719 68.039062 C 551.636719 56.574219 542.164062 47.304688 530.609375 47.652344 " clip-rule="nonzero"/></clipPath><clipPath id="d69112cbb5"><path d="M 0.800781 0.71875 L 141.679688 0.71875 L 141.679688 623.292969 L 0.800781 623.292969 Z M 0.800781 0.71875 " clip-rule="nonzero"/></clipPath><clipPath id="f2e69c18d2"><path d="M 120.609375 47.652344 C 109.453125 47.984375 100.84375 57.726562 100.84375 68.898438 L 100.84375 138.023438 C 100.84375 154.359375 87.601562 167.601562 71.265625 167.601562 C 54.929688 167.601562 41.683594 154.359375 41.683594 138.023438 L 41.683594 22.140625 C 41.683594 10.96875 33.078125 1.242188 21.921875 0.894531 C 10.367188 0.5625 0.894531 9.8125 0.894531 21.296875 L 0.894531 187.933594 C 0.894531 187.953125 0.894531 187.953125 0.894531 187.96875 C 0.382812 199.199219 9.175781 208.390625 20.421875 208.390625 L 100.84375 208.390625 L 100.84375 279.457031 L 21.300781 279.457031 C 10.035156 279.4375 0.894531 288.578125 0.894531 299.84375 L 0.894531 601.867188 C 0.894531 613.042969 9.503906 622.765625 20.660156 623.117188 C 32.214844 623.464844 41.683594 614.195312 41.683594 602.730469 L 41.683594 349.808594 C 41.683594 333.46875 54.929688 320.226562 71.265625 320.226562 C 87.601562 320.226562 100.84375 333.46875 100.84375 349.808594 L 100.84375 555.109375 C 100.84375 566.28125 109.453125 576.007812 120.609375 576.355469 C 132.164062 576.703125 141.636719 567.433594 141.636719 555.96875 L 141.636719 68.039062 C 141.636719 56.574219 132.164062 47.304688 120.609375 47.652344 " clip-rule="nonzero"/></clipPath><clipPath id="1c963c4f73"><rect x="0" width="142" y="0" height="624"/></clipPath><clipPath id="58888312f6"><path d="M 610.789062 132 L 651.738281 132 L 651.738281 216.125 L 610.789062 216.125 Z M 610.789062 132 " clip-rule="nonzero"/></clipPath><clipPath id="bddcaf5084"><path d="M 631.191406 132 C 619.910156 132 610.789062 141.121094 610.789062 152.402344 L 610.789062 195.71875 C 610.789062 206.984375 619.910156 216.105469 631.191406 216.105469 C 642.476562 216.105469 651.597656 206.984375 651.597656 195.71875 L 651.597656 152.402344 C 651.578125 141.121094 642.457031 132 631.191406 132 " clip-rule="nonzero"/></clipPath><clipPath id="6718edaba7"><path d="M 0.789062 0 L 41.738281 0 L 41.738281 84.125 L 0.789062 84.125 Z M 0.789062 0 " clip-rule="nonzero"/></clipPath><clipPath id="1bac500f5d"><path d="M 21.191406 0 C 9.910156 0 0.789062 9.121094 0.789062 20.402344 L 0.789062 63.71875 C 0.789062 74.984375 9.910156 84.105469 21.191406 84.105469 C 32.476562 84.105469 41.597656 74.984375 41.597656 63.71875 L 41.597656 20.402344 C 41.578125 9.121094 32.457031 0 21.191406 0 " clip-rule="nonzero"/></clipPath><clipPath id="289d890e2f"><rect x="0" width="42" y="0" height="85"/></clipPath><clipPath id="86aeae93f0"><path d="M 610.789062 250.5625 L 651.738281 250.5625 L 651.738281 492.113281 L 610.789062 492.113281 Z M 610.789062 250.5625 " clip-rule="nonzero"/></clipPath><clipPath id="0c0db5d0bf"><path d="M 631.191406 250.5625 C 619.910156 250.5625 610.789062 259.6875 610.789062 270.96875 L 610.789062 471.597656 C 610.789062 482.863281 619.910156 492.003906 631.191406 492.003906 C 642.476562 492.003906 651.597656 482.882812 651.597656 471.597656 L 651.597656 270.96875 C 651.578125 259.6875 642.457031 250.5625 631.191406 250.5625 " clip-rule="nonzero"/></clipPath><clipPath id="d2b8a81728"><path d="M 0.789062 0.5625 L 41.738281 0.5625 L 41.738281 242 L 0.789062 242 Z M 0.789062 0.5625 " clip-rule="nonzero"/></clipPath><clipPath id="94217b1a04"><path d="M 21.191406 0.5625 C 9.910156 0.5625 0.789062 9.6875 0.789062 20.96875 L 0.789062 221.597656 C 0.789062 232.863281 9.910156 242.003906 21.191406 242.003906 C 32.476562 242.003906 41.597656 232.882812 41.597656 221.597656 L 41.597656 20.96875 C 41.578125 9.6875 32.457031 0.5625 21.191406 0.5625 " clip-rule="nonzero"/></clipPath><clipPath id="23c2d90dc7"><rect x="0" width="42" y="0" height="243"/></clipPath><clipPath id="66a9a2b719"><path d="M 710.730469 208.382812 L 751.601562 208.382812 L 751.601562 415.675781 L 710.730469 415.675781 Z M 710.730469 208.382812 " clip-rule="nonzero"/></clipPath><clipPath id="1367f1779b"><path d="M 731.132812 208.382812 C 719.851562 208.382812 710.730469 217.503906 710.730469 228.785156 L 710.730469 395.242188 C 710.730469 406.503906 719.851562 415.644531 731.132812 415.644531 C 742.417969 415.644531 751.539062 406.523438 751.539062 395.242188 L 751.539062 228.785156 C 751.519531 217.503906 742.398438 208.382812 731.132812 208.382812 " clip-rule="nonzero"/></clipPath><clipPath id="2ac0592877"><path d="M 0.730469 0.382812 L 41.601562 0.382812 L 41.601562 207.675781 L 0.730469 207.675781 Z M 0.730469 0.382812 " clip-rule="nonzero"/></clipPath><clipPath id="9631d83374"><path d="M 21.132812 0.382812 C 9.851562 0.382812 0.730469 9.503906 0.730469 20.785156 L 0.730469 187.242188 C 0.730469 198.503906 9.851562 207.644531 21.132812 207.644531 C 32.417969 207.644531 41.539062 198.523438 41.539062 187.242188 L 41.539062 20.785156 C 41.519531 9.503906 32.398438 0.382812 21.132812 0.382812 " clip-rule="nonzero"/></clipPath><clipPath id="3414604889"><rect x="0" width="42" y="0" height="208"/></clipPath><clipPath id="5f9f9bf0f8"><rect x="0" width="752" y="0" height="624"/></clipPath></defs><g transform="matrix(1, 0, 0, 1, 8, 72)"><g clip-path="url(#5f9f9bf0f8)"><g clip-path="url(#bc7ced5b28)"><g clip-path="url(#4f5fb68860)"><g transform="matrix(1, 0, 0, 1, 0, 208)"><g clip-path="url(#bef7f71672)"><g clip-path="url(#c0a2835e02)"><g clip-path="url(#8e6b65d12d)"><path fill="#00c9ff" d="M 0.480469 0.382812 L 41.269531 0.382812 L 41.269531 207.675781 L 0.480469 207.675781 Z M 0.480469 0.382812 " fill-opacity="1" fill-rule="nonzero"/></g></g></g></g></g></g><g clip-path="url(#d1436147a5)"><g clip-path="url(#25f75699c1)"><g transform="matrix(1, 0, 0, 1, 100, 132)"><g clip-path="url(#68625881f6)"><g clip-path="url(#17e28ee512)"><g clip-path="url(#e2262018ee)"><path fill="#00c9ff" d="M 0.425781 0 L 41.214844 0 L 41.214844 241.386719 L 0.425781 241.386719 Z M 0.425781 0 " fill-opacity="1" fill-rule="nonzero"/></g></g></g></g></g></g><g clip-path="url(#23a7ea765e)"><g clip-path="url(#9834b32271)"><g transform="matrix(1, 0, 0, 1, 100, 407)"><g clip-path="url(#9689f84fb0)"><g clip-path="url(#06afeee422)"><g clip-path="url(#ae3993315b)"><path fill="#00c9ff" d="M 0.425781 0.890625 L 41.214844 0.890625 L 41.214844 85.019531 L 0.425781 85.019531 Z M 0.425781 0.890625 " fill-opacity="1" fill-rule="nonzero"/></g></g></g></g></g></g><g clip-path="url(#08d05b079b)"><g clip-path="url(#72a1874e74)"><g transform="matrix(1, 0, 0, 1, 200, -0.000000000000056843)"><g clip-path="url(#ba407e8647)"><g clip-path="url(#0fe10f2ed3)"><g clip-path="url(#ee43222df4)"><path fill="#00c9ff" d="M 0.371094 0.894531 L 141.125 0.894531 L 141.125 623.300781 L 0.371094 623.300781 Z M 0.371094 0.894531 " fill-opacity="1" fill-rule="nonzero"/></g></g></g></g></g></g><g clip-path="url(#9c0f7be955)"><g clip-path="url(#df16356564)"><g transform="matrix(1, 0, 0, 1, 410, -0.000000000000056843)"><g clip-path="url(#1c963c4f73)"><g clip-path="url(#d69112cbb5)"><g clip-path="url(#f2e69c18d2)"><path fill="#00c9ff" d="M 0.878906 0.894531 L 141.632812 0.894531 L 141.632812 623.292969 L 0.878906 623.292969 Z M 0.878906 0.894531 " fill-opacity="1" fill-rule="nonzero"/></g></g></g></g></g></g><g clip-path="url(#58888312f6)"><g clip-path="url(#bddcaf5084)"><g transform="matrix(1, 0, 0, 1, 610, 132)"><g clip-path="url(#289d890e2f)"><g clip-path="url(#6718edaba7)"><g clip-path="url(#1bac500f5d)"><path fill="#00c9ff" d="M 0.789062 0 L 41.578125 0 L 41.578125 84.125 L 0.789062 84.125 Z M 0.789062 0 " fill-opacity="1" fill-rule="nonzero"/></g></g></g></g></g></g><g clip-path="url(#86aeae93f0)"><g clip-path="url(#0c0db5d0bf)"><g transform="matrix(1, 0, 0, 1, 610, 250)"><g clip-path="url(#23c2d90dc7)"><g clip-path="url(#d2b8a81728)"><g clip-path="url(#94217b1a04)"><path fill="#00c9ff" d="M 0.789062 0.5625 L 41.578125 0.5625 L 41.578125 241.953125 L 0.789062 241.953125 Z M 0.789062 0.5625 " fill-opacity="1" fill-rule="nonzero"/></g></g></g></g></g></g><g clip-path="url(#66a9a2b719)"><g clip-path="url(#1367f1779b)"><g transform="matrix(1, 0, 0, 1, 710, 208)"><g clip-path="url(#3414604889)"><g clip-path="url(#2ac0592877)"><g clip-path="url(#9631d83374)"><path fill="#00c9ff" d="M 0.730469 0.382812 L 41.519531 0.382812 L 41.519531 207.675781 L 0.730469 207.675781 Z M 0.730469 0.382812 " fill-opacity="1" fill-rule="nonzero"/></g></g></g></g></g></g></g></g></svg>